<svg id="SvgjsSvg1127" width="288" height="288" xmlns="http://www.w3.org/2000/svg" version="1.1">
    <defs id="SvgjsDefs1128"></defs>
    <g id="SvgjsG1129">
        <svg xmlns="http://www.w3.org/2000/svg" enable-background="new 0 0 72 72" viewBox="0 0 72 72" width="288"
             height="288">
            <rect id="whitspace" width="72" height="72" fill="#ffffff" class="colorfff svgShape"></rect>
            <g id="icons" fill="#b20838" class="color000svgShape">
                <path fill-rule="evenodd"
                      d="M64 20.3c2 .1 3.9 1 5.2 2.5 1.2 1.5 1.9 3.5 1.7 5.5-.3 3.2-2.6 5.9-5.4 7.4-2.8 1.4-6.2 1.7-9.3 1.1-.6-.1-1.2-.2-1.7-.5-.2-.1-.3-.2-.5-.4-.1-.2-.2-.3-.3-.5-.2-.6-.3-1.2-.3-1.8 0-3.2.7-6.4 2.5-9S60.9 20.2 64 20.3zM8 20.3c-2 .1-3.9 1-5.2 2.5-1.2 1.5-1.9 3.5-1.7 5.5.3 3.2 2.6 5.9 5.4 7.4 2.8 1.4 6.2 1.7 9.3 1.1.6-.1 1.2-.2 1.7-.5.2-.1.3-.2.5-.4.1-.2.2-.3.3-.5.2-.6.3-1.2.3-1.8 0-3.2-.7-6.4-2.5-9C14.2 22 11.1 20.2 8 20.3zM13 64.5c.8 2.4 2.3 4.6 4.9 5.2 2.5.5 5-.7 7.1-1.9 2.3-1.2 4.7-2.5 7.3-3.1 3.2-.7 6.6-.2 9.6 1.1 2.2.9 4 2.3 6.3 3.1 2.5.9 5.3 1.3 7.8.4 3.1-1.1 4.3-4.6 4.3-7.7 0-2-.3-4-.6-6-.9-5.3-3-10.8-7.7-13.8-2-1.3-3.8-2.6-5-4.7-1.4-2.4-2.3-4.9-4.5-6.8-2.1-1.8-4.8-2.7-7.6-2.4-3 .3-5.7 1.5-7.5 4-1.3 1.8-2.1 3.8-3.2 5.7-1.1 2-2.6 3.8-4.2 5.4-2.5 2.7-5.2 5.2-6.5 8.7-1.2 3-1.8 6.6-1.3 9.9C12.4 62.4 12.6 63.5 13 64.5M25.1 2.6C23 1.8 20.6 2 18.6 2.9c-1.9 1-3.5 2.9-4.1 5-1 3.4.1 7.3 2.4 10.1s5.7 4.4 9.2 5.3c.7.2 1.3.3 2 .2.2 0 .5-.1.7-.2.2-.1.4-.2.6-.4.5-.5.8-1.1 1.1-1.7 1.4-3.3 2.1-7 1.3-10.5S28.5 3.8 25.1 2.6zM45.7 2.6c2.1-.8 4.5-.6 6.5.3 1.9 1 3.5 2.9 4.1 5 1 3.4-.1 7.3-2.4 10.1-2.3 2.7-5.7 4.4-9.2 5.3-.7.2-1.3.3-2 .2-.2 0-.5-.1-.7-.2-.2-.1-.4-.2-.6-.4-.5-.5-.8-1.1-1.1-1.7-1.4-3.3-2.1-7-1.3-10.5C39.9 7 42.4 3.8 45.7 2.6z"
                      clip-rule="evenodd" fill="#b20838" class="color000svgShape"></path>
            </g>
        </svg>
    </g>
</svg>